<svg width="16" height="16" viewBox="0 0 16 16" fill="none" xmlns="http://www.w3.org/2000/svg">
<g clip-path="url(#clip0_385_26785)">
<path d="M8.00004 1.33333C11.682 1.33333 14.6667 4.31799 14.6667 7.99999C14.6667 11.682 11.682 14.6667 8.00004 14.6667C4.31804 14.6667 1.33337 11.682 1.33337 7.99999C1.33337 4.31799 4.31804 1.33333 8.00004 1.33333ZM8.00004 2.66666C6.58555 2.66666 5.229 3.22856 4.2288 4.22876C3.22861 5.22895 2.66671 6.58551 2.66671 7.99999C2.66671 9.41448 3.22861 10.771 4.2288 11.7712C5.229 12.7714 6.58555 13.3333 8.00004 13.3333C9.41453 13.3333 10.7711 12.7714 11.7713 11.7712C12.7715 10.771 13.3334 9.41448 13.3334 7.99999C13.3334 6.58551 12.7715 5.22895 11.7713 4.22876C10.7711 3.22856 9.41453 2.66666 8.00004 2.66666ZM8.00004 3.99999C8.16333 4.00002 8.32093 4.05997 8.44296 4.16847C8.56498 4.27698 8.64294 4.42649 8.66204 4.58866L8.66671 4.66666V7.72399L10.4714 9.52866C10.5909 9.64863 10.6604 9.80962 10.6655 9.97892C10.6707 10.1482 10.6112 10.3131 10.4992 10.4402C10.3872 10.5672 10.231 10.6469 10.0624 10.6629C9.89378 10.679 9.72537 10.6303 9.59137 10.5267L9.52871 10.4713L7.52871 8.47133C7.42509 8.36763 7.35855 8.23266 7.33937 8.08733L7.33337 7.99999V4.66666C7.33337 4.48985 7.40361 4.32028 7.52864 4.19526C7.65366 4.07023 7.82323 3.99999 8.00004 3.99999Z" fill="#888888"/>
</g>
<defs>
<clipPath id="clip0_385_26785">
<rect width="16" height="16" fill="white"/>
</clipPath>
</defs>
</svg>
