<svg width="24" height="24" viewBox="0 0 24 24" fill="none" xmlns="http://www.w3.org/2000/svg">
<rect width="24" height="24" rx="4" fill="#012C5D"/>
<path d="M6.66665 17.3334C6.29998 17.3334 5.9862 17.203 5.72531 16.9421C5.46442 16.6812 5.33376 16.3672 5.33331 16.0001V8.00008C5.33331 7.63341 5.46398 7.31964 5.72531 7.05875C5.98665 6.79786 6.30042 6.66719 6.66665 6.66675H17.3333C17.7 6.66675 18.014 6.79741 18.2753 7.05875C18.5366 7.32008 18.6671 7.63386 18.6666 8.00008V16.0001C18.6666 16.3667 18.5362 16.6807 18.2753 16.9421C18.0144 17.2034 17.7004 17.3339 17.3333 17.3334H6.66665ZM12 12.6667L17.3333 9.33341V8.00008L12 11.3334L6.66665 8.00008V9.33341L12 12.6667Z" fill="white"/>
</svg>
