<svg width="24" height="24" viewBox="0 0 24 24" fill="none" xmlns="http://www.w3.org/2000/svg">
<rect width="24" height="24" rx="4" fill="#012C5D"/>
<path d="M12 11.6666C11.558 11.6666 11.134 11.491 10.8215 11.1784C10.5089 10.8659 10.3333 10.4419 10.3333 9.99992C10.3333 9.55789 10.5089 9.13397 10.8215 8.82141C11.134 8.50885 11.558 8.33325 12 8.33325C12.442 8.33325 12.8659 8.50885 13.1785 8.82141C13.4911 9.13397 13.6666 9.55789 13.6666 9.99992C13.6666 10.2188 13.6235 10.4355 13.5398 10.6377C13.456 10.8399 13.3333 11.0237 13.1785 11.1784C13.0237 11.3332 12.84 11.456 12.6378 11.5397C12.4356 11.6235 12.2188 11.6666 12 11.6666ZM12 5.33325C10.7623 5.33325 9.57532 5.82492 8.70015 6.70009C7.82498 7.57526 7.33331 8.76224 7.33331 9.99992C7.33331 13.4999 12 18.6666 12 18.6666C12 18.6666 16.6666 13.4999 16.6666 9.99992C16.6666 8.76224 16.175 7.57526 15.2998 6.70009C14.4246 5.82492 13.2377 5.33325 12 5.33325Z" fill="white"/>
</svg>
